<mxfile host="app.diagrams.net" modified="2021-04-07T06:55:36.244Z" agent="5.0 (Windows NT 10.0; Win64; x64) AppleWebKit/537.36 (KHTML, like Gecko) Chrome/89.0.4389.114 Safari/537.36" etag="rGa-UIBsaPs1OkEW5SFD" version="14.5.8" type="github">
  <diagram id="C5RBs43oDa-KdzZeNtuy" name="Page-1">
    <mxGraphModel dx="782" dy="437" grid="1" gridSize="10" guides="1" tooltips="1" connect="1" arrows="1" fold="1" page="1" pageScale="1" pageWidth="827" pageHeight="1169" math="0" shadow="0">
      <root>
        <mxCell id="WIyWlLk6GJQsqaUBKTNV-0" />
        <mxCell id="WIyWlLk6GJQsqaUBKTNV-1" parent="WIyWlLk6GJQsqaUBKTNV-0" />
        <mxCell id="61UJFrGC47khrQpKRHEb-30" value="" style="rounded=0;whiteSpace=wrap;html=1;align=center;" vertex="1" parent="WIyWlLk6GJQsqaUBKTNV-1">
          <mxGeometry x="80" y="80" width="740" height="400" as="geometry" />
        </mxCell>
        <mxCell id="61UJFrGC47khrQpKRHEb-8" value="&lt;div&gt;&lt;span&gt;优质内容&lt;/span&gt;&lt;/div&gt;" style="rounded=1;whiteSpace=wrap;html=1;align=center;" vertex="1" parent="WIyWlLk6GJQsqaUBKTNV-1">
          <mxGeometry x="500" y="245" width="120" height="60" as="geometry" />
        </mxCell>
        <mxCell id="61UJFrGC47khrQpKRHEb-34" style="edgeStyle=orthogonalEdgeStyle;rounded=0;orthogonalLoop=1;jettySize=auto;html=1;exitX=1;exitY=0.5;exitDx=0;exitDy=0;entryX=0;entryY=0.5;entryDx=0;entryDy=0;" edge="1" parent="WIyWlLk6GJQsqaUBKTNV-1" source="61UJFrGC47khrQpKRHEb-11" target="61UJFrGC47khrQpKRHEb-8">
          <mxGeometry relative="1" as="geometry" />
        </mxCell>
        <mxCell id="61UJFrGC47khrQpKRHEb-35" style="edgeStyle=orthogonalEdgeStyle;rounded=0;orthogonalLoop=1;jettySize=auto;html=1;exitX=0.5;exitY=0;exitDx=0;exitDy=0;entryX=0;entryY=0.5;entryDx=0;entryDy=0;" edge="1" parent="WIyWlLk6GJQsqaUBKTNV-1" source="61UJFrGC47khrQpKRHEb-11" target="61UJFrGC47khrQpKRHEb-18">
          <mxGeometry relative="1" as="geometry" />
        </mxCell>
        <mxCell id="61UJFrGC47khrQpKRHEb-11" value="UGC产出（用户生产内容）" style="rounded=1;whiteSpace=wrap;html=1;align=center;fillColor=#dae8fc;strokeColor=#6c8ebf;" vertex="1" parent="WIyWlLk6GJQsqaUBKTNV-1">
          <mxGeometry x="294" y="170" width="166" height="60" as="geometry" />
        </mxCell>
        <mxCell id="61UJFrGC47khrQpKRHEb-40" style="edgeStyle=orthogonalEdgeStyle;rounded=0;orthogonalLoop=1;jettySize=auto;html=1;" edge="1" parent="WIyWlLk6GJQsqaUBKTNV-1" source="61UJFrGC47khrQpKRHEb-18" target="61UJFrGC47khrQpKRHEb-8">
          <mxGeometry relative="1" as="geometry" />
        </mxCell>
        <mxCell id="61UJFrGC47khrQpKRHEb-42" style="edgeStyle=orthogonalEdgeStyle;rounded=0;orthogonalLoop=1;jettySize=auto;html=1;" edge="1" parent="WIyWlLk6GJQsqaUBKTNV-1" source="61UJFrGC47khrQpKRHEb-18" target="61UJFrGC47khrQpKRHEb-41">
          <mxGeometry relative="1" as="geometry" />
        </mxCell>
        <mxCell id="61UJFrGC47khrQpKRHEb-18" value="KOL" style="rounded=1;whiteSpace=wrap;html=1;align=center;" vertex="1" parent="WIyWlLk6GJQsqaUBKTNV-1">
          <mxGeometry x="500" y="110" width="120" height="60" as="geometry" />
        </mxCell>
        <mxCell id="61UJFrGC47khrQpKRHEb-29" style="edgeStyle=orthogonalEdgeStyle;rounded=0;orthogonalLoop=1;jettySize=auto;html=1;entryX=0;entryY=0.5;entryDx=0;entryDy=0;" edge="1" parent="WIyWlLk6GJQsqaUBKTNV-1" source="61UJFrGC47khrQpKRHEb-27" target="61UJFrGC47khrQpKRHEb-8">
          <mxGeometry relative="1" as="geometry" />
        </mxCell>
        <mxCell id="61UJFrGC47khrQpKRHEb-54" style="edgeStyle=orthogonalEdgeStyle;rounded=0;orthogonalLoop=1;jettySize=auto;html=1;entryX=0.5;entryY=1;entryDx=0;entryDy=0;" edge="1" parent="WIyWlLk6GJQsqaUBKTNV-1" source="61UJFrGC47khrQpKRHEb-27" target="61UJFrGC47khrQpKRHEb-41">
          <mxGeometry relative="1" as="geometry">
            <Array as="points">
              <mxPoint x="354" y="410" />
              <mxPoint x="730" y="410" />
            </Array>
          </mxGeometry>
        </mxCell>
        <mxCell id="61UJFrGC47khrQpKRHEb-27" value="PGC产出（专业生产内容）" style="rounded=1;whiteSpace=wrap;html=1;align=center;fillColor=#dae8fc;strokeColor=#6c8ebf;" vertex="1" parent="WIyWlLk6GJQsqaUBKTNV-1">
          <mxGeometry x="294" y="310" width="166" height="60" as="geometry" />
        </mxCell>
        <mxCell id="61UJFrGC47khrQpKRHEb-41" value="K12教育" style="rounded=1;whiteSpace=wrap;html=1;align=center;strokeWidth=4;fillColor=#ffe6cc;strokeColor=#d79b00;" vertex="1" parent="WIyWlLk6GJQsqaUBKTNV-1">
          <mxGeometry x="670" y="245" width="120" height="60" as="geometry" />
        </mxCell>
        <mxCell id="61UJFrGC47khrQpKRHEb-44" value="" style="shape=curlyBracket;whiteSpace=wrap;html=1;rounded=1;align=center;" vertex="1" parent="WIyWlLk6GJQsqaUBKTNV-1">
          <mxGeometry x="260" y="210" width="20" height="120" as="geometry" />
        </mxCell>
        <mxCell id="61UJFrGC47khrQpKRHEb-48" value="平台孵化" style="text;html=1;strokeColor=none;fillColor=none;align=center;verticalAlign=middle;whiteSpace=wrap;rounded=0;labelBackgroundColor=#B9E0A5;" vertex="1" parent="WIyWlLk6GJQsqaUBKTNV-1">
          <mxGeometry x="400" y="120" width="60" height="20" as="geometry" />
        </mxCell>
        <mxCell id="61UJFrGC47khrQpKRHEb-50" value="持续产出" style="text;html=1;strokeColor=none;fillColor=none;align=center;verticalAlign=middle;whiteSpace=wrap;rounded=0;labelBackgroundColor=#B9E0A5;" vertex="1" parent="WIyWlLk6GJQsqaUBKTNV-1">
          <mxGeometry x="560" y="200" width="60" height="20" as="geometry" />
        </mxCell>
        <mxCell id="61UJFrGC47khrQpKRHEb-51" value="自由产出" style="text;html=1;strokeColor=none;fillColor=none;align=center;verticalAlign=middle;whiteSpace=wrap;rounded=0;labelBackgroundColor=#B9E0A5;" vertex="1" parent="WIyWlLk6GJQsqaUBKTNV-1">
          <mxGeometry x="480" y="210" width="60" height="20" as="geometry" />
        </mxCell>
        <mxCell id="61UJFrGC47khrQpKRHEb-52" value="定期产出" style="text;html=1;strokeColor=none;fillColor=none;align=center;verticalAlign=middle;whiteSpace=wrap;rounded=0;labelBackgroundColor=#B9E0A5;" vertex="1" parent="WIyWlLk6GJQsqaUBKTNV-1">
          <mxGeometry x="480" y="310" width="60" height="20" as="geometry" />
        </mxCell>
        <mxCell id="61UJFrGC47khrQpKRHEb-58" style="edgeStyle=orthogonalEdgeStyle;rounded=0;orthogonalLoop=1;jettySize=auto;html=1;exitX=0.5;exitY=1;exitDx=0;exitDy=0;" edge="1" parent="WIyWlLk6GJQsqaUBKTNV-1" source="61UJFrGC47khrQpKRHEb-51" target="61UJFrGC47khrQpKRHEb-51">
          <mxGeometry relative="1" as="geometry" />
        </mxCell>
        <mxCell id="61UJFrGC47khrQpKRHEb-59" value="&lt;span style=&quot;background-color: rgb(248 , 249 , 250)&quot;&gt;PUGC模式&lt;/span&gt;" style="rhombus;whiteSpace=wrap;html=1;labelBackgroundColor=#B9E0A5;strokeWidth=1;align=center;fillColor=#e1d5e7;strokeColor=#9673a6;" vertex="1" parent="WIyWlLk6GJQsqaUBKTNV-1">
          <mxGeometry x="120" y="230" width="120" height="80" as="geometry" />
        </mxCell>
      </root>
    </mxGraphModel>
  </diagram>
</mxfile>
